<?xml version="1.0" encoding="UTF-8"?>
<svg version="1.1" xmlns="http://www.w3.org/2000/svg" width="1536" height="1024">
<path d="M0 0 C506.88 0 1013.76 0 1536 0 C1536 337.92 1536 675.84 1536 1024 C1029.12 1024 522.24 1024 0 1024 C0 686.08 0 348.16 0 0 Z " fill="#FB5F49" transform="translate(0,0)"/>
<path d="M0 0 C2.77878287 1.32770924 5.30646109 2.80359341 7.84375 4.546875 C8.58496094 5.05476563 9.32617188 5.56265625 10.08984375 6.0859375 C10.88519531 6.63507813 11.68054688 7.18421875 12.5 7.75 C13.75490234 8.61238281 13.75490234 8.61238281 15.03515625 9.4921875 C21.8879277 14.21048915 28.70358423 18.98131472 35.51123047 23.7644043 C41.18383332 27.74514921 46.89394654 31.66651292 52.625 35.5625 C58.82249257 39.77924536 64.93997745 44.0880758 71 48.5 C79.44453916 54.64729117 88.04005026 60.554102 96.68066406 66.42138672 C100.46342932 68.99605621 104.23157952 71.59189985 108 74.1875 C111.32216999 76.47556908 114.64351209 78.76234139 118 81 C117.6875 83.375 117.6875 83.375 117 86 C113.27459338 88.48360441 111.36937027 88.2315867 106.92578125 88.1953125 C106.2419487 88.1924826 105.55811615 88.18965271 104.8535614 88.18673706 C102.67302835 88.17555684 100.49290855 88.15045691 98.3125 88.125 C96.83268823 88.11496738 95.35287001 88.10584202 93.87304688 88.09765625 C90.248564 88.07562481 86.62432234 88.04111002 83 88 C83.01110306 89.11340759 83.02220612 90.22681519 83.03364563 91.3739624 C83.13534836 101.90689277 83.21012157 112.4397225 83.25906086 122.97303391 C83.28506767 128.38734273 83.32030192 133.8012527 83.37719727 139.21533203 C83.43183611 144.44789762 83.46148746 149.68008143 83.47438622 154.91291046 C83.48356915 156.90147148 83.50150038 158.89001346 83.52865028 160.87841034 C83.71968526 175.45963285 82.76133707 187.07519738 72.09765625 198.09765625 C63.49417048 205.90007258 53.58131476 208.48530301 42.14404297 208.34057617 C41.2159935 208.34101425 40.28794403 208.34145233 39.33177185 208.34190369 C36.3016871 208.33983414 33.27217412 208.31659056 30.2421875 208.29296875 C28.12655947 208.28736626 26.01092752 208.28309925 23.89529419 208.28010559 C18.35507261 208.26870825 12.81509088 208.2392854 7.27496338 208.20599365 C0.61267044 208.16975499 -6.04970315 208.15610728 -12.71206665 208.13863373 C-22.80821071 208.1096448 -32.90382959 208.05212172 -43 208 C-43 184.9 -43 161.8 -43 138 C-53.56 138 -64.12 138 -75 138 C-75 161.1 -75 184.2 -75 208 C-98.55724068 208.16043524 -98.55724068 208.16043524 -108.63671875 208.1953125 C-115.5012659 208.21917835 -122.36559863 208.24734279 -129.22998047 208.30175781 C-134.76726245 208.34537556 -140.30431432 208.36917087 -145.84175491 208.37950897 C-147.94917037 208.38687177 -150.05657394 208.40124938 -152.16389084 208.42292023 C-155.12694788 208.45216578 -158.08906682 208.45594717 -161.05224609 208.45410156 C-162.3448233 208.47567322 -162.3448233 208.47567322 -163.66351318 208.49768066 C-174.20235821 208.42714005 -182.99838141 203.86065285 -190.625 196.75 C-194.04423569 193.22509256 -196.20508562 189.55108623 -198 185 C-198.34231659 184.153237 -198.68463318 183.306474 -199.037323 182.43405151 C-200.23107148 178.17572419 -200.26517664 174.36270155 -200.22705078 169.96533203 C-200.22734283 169.07688095 -200.22763489 168.18842987 -200.22793579 167.27305603 C-200.22654808 164.35120709 -200.21101317 161.42961662 -200.1953125 158.5078125 C-200.19158039 156.47614684 -200.18873435 154.44447938 -200.18673706 152.41281128 C-200.17911624 147.07644647 -200.15948104 141.74019126 -200.1373291 136.40386963 C-200.11683727 130.95415733 -200.10772821 125.50442725 -200.09765625 120.0546875 C-200.07623371 109.36974363 -200.04211647 98.68488094 -200 88 C-200.95366455 88.01571045 -201.9073291 88.0314209 -202.88989258 88.04760742 C-206.42886913 88.10191678 -209.96780886 88.13635333 -213.50708008 88.16479492 C-215.03871861 88.17987936 -216.57031398 88.20034978 -218.10180664 88.22631836 C-220.30365654 88.26271847 -222.50493533 88.27972913 -224.70703125 88.29296875 C-225.39150833 88.30845261 -226.07598541 88.32393646 -226.78120422 88.33988953 C-229.66411356 88.34090953 -231.55065766 88.31590776 -233.94848633 86.63012695 C-235 85 -235 85 -235.1171875 82.625 C-233.48103842 78.78062173 -230.53195884 77.16308453 -227.125 75 C-225.65601623 74.0289994 -224.18727626 73.05762989 -222.71875 72.0859375 C-221.55859375 71.32941895 -221.55859375 71.32941895 -220.375 70.55761719 C-216.42276447 67.96558772 -212.52480636 65.29500023 -208.625 62.625 C-207.82634521 62.08020996 -207.02769043 61.53541992 -206.20483398 60.97412109 C-200.80196063 57.27584531 -195.47824447 53.48154556 -190.1875 49.625 C-182.73873366 44.19854543 -175.16513629 38.97723478 -167.53735352 33.80615234 C-160.69955944 29.1683235 -153.90315546 24.47450902 -147.125 19.75 C-145.69027344 18.75371582 -145.69027344 18.75371582 -144.2265625 17.73730469 C-139.84197598 14.69077302 -135.47129491 11.62906931 -131.13671875 8.51171875 C-130.3998584 7.98803711 -129.66299805 7.46435547 -128.90380859 6.92480469 C-127.55164697 5.96316931 -126.20635637 4.99176583 -124.86962891 4.00878906 C-120.53823925 0.94924969 -120.53823925 0.94924969 -117.9777832 1.19067383 C-115.60079886 2.1633566 -114.76925667 3.13233799 -113.2734375 5.203125 C-112.7990625 5.85410156 -112.3246875 6.50507813 -111.8359375 7.17578125 C-111.35382813 7.86027344 -110.87171875 8.54476563 -110.375 9.25 C-109.88515625 9.91902344 -109.3953125 10.58804687 -108.890625 11.27734375 C-106.40899705 14.7285695 -104.3431818 17.92304818 -103 22 C-111.11690746 27.88683561 -119.32975338 33.61708407 -127.625 39.25 C-134.94912882 44.225213 -142.24749341 49.23335089 -149.5 54.3125 C-150.25104004 54.83811523 -151.00208008 55.36373047 -151.77587891 55.90527344 C-153.26713146 56.95195904 -154.74427143 58.01907581 -156.20570374 59.10700989 C-159 61 -159 61 -162.4934845 62.71910095 C-167.30595397 65.24374345 -171.91729421 67.92272903 -173.79841232 73.26925087 C-175.07023071 80.14366558 -174.73203749 87.12176302 -174.54296875 94.078125 C-174.5295291 96.33629834 -174.52158555 98.59451046 -174.51887512 100.85272217 C-174.49895972 105.57139312 -174.43325582 110.28631658 -174.33081055 115.00390625 C-174.20038642 121.04583726 -174.15312246 127.08467918 -174.13602734 133.12788773 C-174.11911984 137.78475587 -174.0743546 142.44099337 -174.01952553 147.09755707 C-173.99359461 149.32541537 -173.97256639 151.55333641 -173.95656395 153.78128815 C-173.92684188 156.89338275 -173.86353292 160.00293321 -173.78979492 163.11425781 C-173.78577667 164.03075104 -173.78175842 164.94724426 -173.77761841 165.89151001 C-173.5842951 171.96846274 -172.43932028 174.78646314 -168 179 C-165.08898394 180.45550803 -162.50682802 180.1651099 -159.25537109 180.20532227 C-158.56257553 180.21522186 -157.86977997 180.22512146 -157.1559906 180.23532104 C-154.86184122 180.26695497 -152.56767111 180.29170086 -150.2734375 180.31640625 C-148.68445288 180.33697415 -147.09547376 180.35797058 -145.50650024 180.37937927 C-141.32096805 180.43461691 -137.13538634 180.48401869 -132.94976807 180.53222656 C-128.6800088 180.58242926 -124.41032158 180.63812174 -120.140625 180.69335938 C-111.76047755 180.80096163 -103.3802699 180.90240199 -95 181 C-95.00888245 180.29700272 -95.01776489 179.59400543 -95.0269165 178.8697052 C-95.10716995 172.23436002 -95.16801862 165.5991509 -95.20724869 158.96342945 C-95.22809576 155.55215001 -95.25635897 152.14127266 -95.30175781 148.73022461 C-95.35365959 144.80587631 -95.37296922 140.88168904 -95.390625 136.95703125 C-95.42159271 135.12553276 -95.42159271 135.12553276 -95.45318604 133.2570343 C-95.45348816 132.1162291 -95.45379028 130.97542389 -95.45410156 129.80004883 C-95.46298401 128.79855301 -95.47186646 127.79705719 -95.48101807 126.76521301 C-94.86730117 123.23715855 -93.44473789 121.56528095 -91 119 C-88.40001086 117.70000543 -86.47151488 117.85152425 -83.55981445 117.82299805 C-82.42135574 117.81016281 -81.28289703 117.79732758 -80.10993958 117.78410339 C-78.87354233 117.77671646 -77.63714508 117.76932953 -76.36328125 117.76171875 C-75.09534225 117.753647 -73.82740326 117.74557526 -72.52104187 117.73725891 C-69.83178036 117.72340574 -67.14264194 117.71239372 -64.45336914 117.70483398 C-61.02131081 117.69379973 -57.58990627 117.65943706 -54.15807819 117.61966228 C-50.87237777 117.58709794 -47.58661844 117.58270781 -44.30078125 117.57421875 C-43.07450516 117.55671066 -41.84822906 117.53920258 -40.58479309 117.52116394 C-33.85846413 117.53821298 -29.41056198 117.84305174 -24 122 C-22.69239107 124.61521785 -22.88002452 126.53113401 -22.88647461 129.45947266 C-22.88655014 130.60050446 -22.88662567 131.74153625 -22.88670349 132.91714478 C-22.89186478 134.15362762 -22.89702606 135.39011047 -22.90234375 136.6640625 C-22.90446617 138.5575795 -22.90446617 138.5575795 -22.90663147 140.48934937 C-22.91128922 143.84638299 -22.92027592 147.203349 -22.93133545 150.56036377 C-22.9415623 153.98554906 -22.94613182 157.41074134 -22.95117188 160.8359375 C-22.96221762 167.55731043 -22.97896806 174.27865131 -23 181 C-13.69846165 180.96193819 -4.3973732 180.90256989 4.90384197 180.81609726 C9.22293796 180.7766104 13.54182971 180.74442799 17.86108398 180.72900391 C22.03049624 180.71384506 26.19934705 180.67941389 30.36850929 180.63169098 C31.95803761 180.61686909 33.54764608 180.60895852 35.13724327 180.60811615 C37.366435 180.60574702 39.59407439 180.57867555 41.82299805 180.54589844 C43.72495186 180.53257477 43.72495186 180.53257477 45.66532898 180.51898193 C49.63618793 179.90098872 51.24022602 178.88904134 54 176 C56.7543945 171.45032296 56.30681712 166.32047285 56.31884766 161.16088867 C56.32889328 160.17504791 56.3389389 159.18920715 56.34928894 158.17349243 C56.38012873 154.92165702 56.39715848 151.66990398 56.4140625 148.41796875 C56.43277348 146.16066275 56.45234684 143.90336375 56.4727478 141.64607239 C56.52408222 135.70972824 56.56370108 129.77336142 56.60089111 123.83691406 C56.64092244 117.77728662 56.69201879 111.71775362 56.7421875 105.65820312 C56.83896237 93.77220176 56.92336228 81.88614707 57 70 C56.22922119 69.70448242 55.45844238 69.40896484 54.66430664 69.10449219 C51.58182398 67.82664452 49.16151768 66.17966365 46.4375 64.25 C45.88723145 63.86295898 45.33696289 63.47591797 44.77001953 63.07714844 C43.53161858 62.20579324 42.29472575 61.33229202 41.05908203 60.45703125 C37.1738952 57.70782625 33.27336377 54.98047097 29.375 52.25 C28.52591064 51.65445313 27.67682129 51.05890625 26.80200195 50.4453125 C20.93799222 46.33802677 15.04182802 42.28073785 9.125 38.25 C1.33577685 32.94352623 -6.36114279 27.52041394 -14 22 C-12.33383155 16.73786039 -9.06931631 12.60840413 -5.875 8.1875 C-5.31167969 7.39923828 -4.74835938 6.61097656 -4.16796875 5.79882812 C-2.78322342 3.86253169 -1.39381373 1.92977359 0 0 Z " fill="#FDFBFB" transform="translate(827,458)"/>
<path d="M0 0 C13.26526731 11.6046079 23.92400027 25.7520474 25.47363281 43.85058594 C25.63166115 47.15924213 25.69979765 50.45329859 25.71484375 53.765625 C25.72427002 55.34645874 25.72427002 55.34645874 25.73388672 56.95922852 C25.62768794 63.4708636 24.62464609 68.79612132 22.21484375 74.828125 C21.85003906 75.89417969 21.48523438 76.96023438 21.109375 78.05859375 C16.22306953 91.41214336 8.85416384 102.83227485 0.44091797 114.17285156 C-0.71636564 115.73525357 -1.85867745 117.30871332 -3 118.8828125 C-10.71295624 129.39921214 -19.11693745 139.30361212 -28.28515625 148.578125 C-28.77733643 149.07957031 -29.2695166 149.58101562 -29.77661133 150.09765625 C-33.53061026 153.8186174 -35.81948805 155.65176329 -41.11035156 156.12646484 C-45.52433788 155.76811437 -46.62590944 154.84572069 -49.67578125 151.7265625 C-50.54468994 150.8509668 -51.41359863 149.97537109 -52.30883789 149.07324219 C-53.65836548 147.65253418 -53.65836548 147.65253418 -55.03515625 146.203125 C-55.97910793 145.2301842 -56.92369181 144.25785638 -57.86889648 143.28613281 C-64.72998188 136.17624593 -71.03433409 128.85309559 -76.78515625 120.828125 C-77.77446247 119.48286908 -78.76405991 118.13782729 -79.75390625 116.79296875 C-89.4465101 103.48134335 -98.8560689 89.67734488 -103.78515625 73.828125 C-104.10226562 72.81878906 -104.419375 71.80945313 -104.74609375 70.76953125 C-109.66767062 52.68612265 -107.0154521 35.32959581 -98.25390625 18.96875 C-88.78322726 3.154503 -74.28924321 -6.8125422 -56.78515625 -12.171875 C-37.09939646 -16.47296538 -15.93748388 -12.42810805 0 0 Z " fill="#FDFBFB" transform="translate(808.78515625,329.171875)"/>
<path d="M0 0 C7.31971743 5.32568273 12.78488281 12.45078515 14.37109375 21.4921875 C15.36964893 30.41677438 13.58117323 38.87609321 8.41796875 46.30078125 C3.03948862 52.62895804 -3.26373108 57.94364328 -11.62890625 59.4921875 C-23.03620553 60.36856692 -31.46593991 59.15975391 -40.44140625 51.8671875 C-46.85736775 45.81460789 -50.66656177 37.86770335 -50.97167969 29.04614258 C-51.09388268 21.02055386 -50.26979488 15.30511994 -45.62890625 8.4921875 C-45.05140625 7.5846875 -44.47390625 6.6771875 -43.87890625 5.7421875 C-31.52191159 -6.61480716 -15.23316809 -8.73700279 0 0 Z " fill="#FC644E" transform="translate(786.62890625,354.5078125)"/>
</svg>
